Genre:Animation | Comedy | Family
Language:English
 
http://www.imdb.com/title/tt1615918/

Source:Unknown Thanks!

Format : AVI
Format/Info : Audio Video Interleave
File size : 1 012 MiB
Duration : 1h 20mn
Overall bit rate : 1 759 Kbps

Video
ID : 0
Format : MPEG-4 Visual
Format profile : Advanced Simple@L5
Format settings, BVOP : Yes
Format settings, QPel : No
Format settings, GMC : No warppoints
Format settings, Matrix : Default (H.263)
Codec ID : XVID
Codec ID/Hint : XviD
Duration : 1h 20mn
Bit rate : 1 556 Kbps
Width : 624 pixels
Height : 336 pixels
Display aspect ratio : 1.857
Frame rate : 29.970 fps
Color space : YUV
Chroma subsampling : 4:2:0
Bit depth : 8 bits
Scan type : Progressive
Bits/(Pixel*Frame) : 0.248
Stream size : 895 MiB (88%)
Writing library : XviD 1.2.1 (UTC 2008-12-04)

Audio
ID : 1
Format : AC-3
Format/Info : Audio Coding 3
Mode extension : CM (complete main)
Codec ID : 2000
Duration : 1h 20mn
Bit rate mode : Constant
Bit rate : 192 Kbps
Channel(s) : 2 channels
Channel positions : Front: L R
Sampling rate : 48.0 KHz
Bit depth : 16 bits
Stream size : 110 MiB (11%)
Alignment : Aligned on interleaves
Interleave, duration : 33 ms (1.00 video frame)
Interleave, preload duration : 512 ms


Plot:
Playing around while aboard a cruise ship, the Chipmunks and Chipettes accidentally go overboard and end up marooned in a tropical paradise. They discover their new turf is not as deserted as it seems
 
http://img440.imageshack.us/img440/2163/vlcsnap00002s.png 
http://img843.imageshack.us/img843/9557/vlcsnap00003gc.png 
http://img263.imageshack.us/img263/3417/vlcsnap00004bw.png 
http://img72.imageshack.us/img72/9789/vlcsnap00005pq.png 
http://img805.imageshack.us/img805/3815/vlcsnap00006w.png
